<svg width="48" height="48" fill="none" xmlns="http://www.w3.org/2000/svg">
  <rect width="48" height="48" rx="10" fill="#ED3B44"/>
  <path d="M24.778 27 21 23.222M14 34c2 0 4.608.342 5.975-1.025a3.5 3.5 0 1 0-4.95-4.95C13.658 29.392 15.025 32 14 34Z" stroke="#FAFAFA" stroke-width="2" stroke-linecap="round" stroke-linejoin="round"/>
  <path d="M20 28c-.491-.491-.737-.737-.876-.994a2 2 0 0 1 .038-1.968c.148-.251.403-.488.913-.96l9.868-9.137a2.204 2.204 0 0 1 3.116 3.115l-9.137 9.869c-.473.51-.709.764-.96.913a2 2 0 0 1-1.968.038c-.257-.139-.503-.385-.994-.876Z" stroke="#FAFAFA" stroke-width="2" stroke-linecap="round" stroke-linejoin="round"/>
</svg>
